<svg xmlns="http://www.w3.org/2000/svg" fill="none" viewBox="0 0 403 275" height="275" width="403">
<path fill="#23488B" d="M280.76 225H123.093C120.623 225 118.255 224.019 116.509 222.273C114.763 220.526 113.781 218.158 113.781 215.689V166.417C113.781 163.947 114.763 161.579 116.509 159.833C118.255 158.086 120.623 157.105 123.093 157.105C125.562 157.105 127.931 158.086 129.677 159.833C131.423 161.579 132.405 163.947 132.405 166.417V206.377H271.44V166.417C271.44 165.194 271.68 163.983 272.148 162.853C272.616 161.723 273.302 160.697 274.166 159.832C275.031 158.967 276.058 158.281 277.188 157.814C278.317 157.346 279.529 157.105 280.752 157.105C281.975 157.105 283.185 157.346 284.315 157.814C285.445 158.281 286.472 158.967 287.336 159.832C288.201 160.697 288.887 161.723 289.355 162.853C289.823 163.983 290.063 165.194 290.063 166.417V215.689C290.063 218.157 289.083 220.524 287.338 222.27C285.594 224.016 283.228 224.998 280.76 225Z"></path>
<path fill="#23488B" d="M249.163 116.536C247.94 116.537 246.729 116.297 245.599 115.829C244.469 115.361 243.443 114.674 242.579 113.808L201.237 72.4654L159.895 113.808C158.149 115.553 155.781 116.534 153.312 116.534C150.842 116.534 148.474 115.553 146.728 113.808C144.983 112.062 144.002 109.694 144.002 107.224C144.002 104.755 144.983 102.387 146.728 100.641L194.643 52.7264C196.389 50.9806 198.757 50 201.226 50C203.696 50 206.063 50.9806 207.81 52.7264L255.724 100.641C256.589 101.506 257.275 102.532 257.744 103.661C258.212 104.791 258.452 106.002 258.452 107.224C258.452 108.447 258.212 109.658 257.744 110.788C257.275 111.917 256.589 112.943 255.724 113.808C254.864 114.671 253.841 115.357 252.715 115.825C251.59 116.293 250.383 116.534 249.163 116.536Z"></path>
<path fill="#23488B" d="M201.239 185.583C198.77 185.583 196.401 184.602 194.655 182.855C192.909 181.109 191.928 178.741 191.928 176.271V61.3036C191.928 58.8341 192.909 56.4656 194.655 54.7193C196.401 52.9731 198.77 51.9923 201.239 51.9923C202.462 51.9923 203.673 52.233 204.802 52.7009C205.932 53.1689 206.958 53.855 207.823 54.7197C208.687 55.5844 209.373 56.6108 209.84 57.7405C210.308 58.8702 210.548 60.081 210.548 61.3036V176.271C210.548 177.494 210.308 178.705 209.84 179.834C209.373 180.964 208.687 181.99 207.823 182.855C206.958 183.72 205.932 184.406 204.802 184.874C203.673 185.342 202.462 185.583 201.239 185.583Z"></path>
</svg>
